# xmcd
#
# Track frame offsets:
#	152
#	15932
#	38953
#	54685
#	74192
#
# Disc length: 1166 seconds
#
# Revision: 1
# Processed by: cddbd v1.5PL3 Copyright (c) Steve Scherf et al.
# Submitted via: EasyCDDAExtractor 6.5.0.1
#
DISCID=42048c05
DTITLE=Napoleon Washington - Moan Groan and Picks That Box
DYEAR=2000
DGENRE=Blues
TTITLE0=Same Steel
TTITLE1=River Of Tears
TTITLE2=Sweet Smile Of The Crocodile
TTITLE3=This One Thing I Know
TTITLE4=Water Me
EXTD=
EXTT0=
EXTT1=
EXTT2=
EXTT3=
EXTT4=
PLAYORDER=
